<mxfile host="app.diagrams.net" agent="Mozilla/5.0 (Macintosh; Intel Mac OS X 10_15_7) AppleWebKit/605.1.15 (KHTML, like Gecko) Version/18.1.1 Safari/605.1.15" version="25.0.1">
  <diagram name="Page-1" id="f4iPRUeld-cocyelYFe_">
    <mxGraphModel dx="1409" dy="1090" grid="1" gridSize="10" guides="1" tooltips="1" connect="1" arrows="1" fold="1" page="1" pageScale="1" pageWidth="827" pageHeight="1169" math="0" shadow="0">
      <root>
        <mxCell id="0" />
        <mxCell id="1" parent="0" />
        <mxCell id="6wJMm1dqJSNav1fxQoMT-44" value="" style="rounded=0;whiteSpace=wrap;html=1;" vertex="1" parent="1">
          <mxGeometry x="180" y="760" width="330" height="310" as="geometry" />
        </mxCell>
        <mxCell id="6wJMm1dqJSNav1fxQoMT-24" value="" style="rounded=0;whiteSpace=wrap;html=1;" vertex="1" parent="1">
          <mxGeometry x="290" y="20" width="500" height="650" as="geometry" />
        </mxCell>
        <mxCell id="6wJMm1dqJSNav1fxQoMT-20" value="" style="rounded=0;whiteSpace=wrap;html=1;align=right;" vertex="1" parent="1">
          <mxGeometry x="5" y="160" width="260" height="490" as="geometry" />
        </mxCell>
        <object label="ESP32" id="6wJMm1dqJSNav1fxQoMT-1">
          <mxCell style="shape=image;html=1;verticalAlign=top;verticalLabelPosition=bottom;labelBackgroundColor=#ffffff;imageAspect=0;aspect=fixed;image=https://cdn2.iconfinder.com/data/icons/electronic-13/480/3-electronic-arduino-chipset-icon-2-128.png" vertex="1" parent="1">
            <mxGeometry x="5" y="270" width="128" height="128" as="geometry" />
          </mxCell>
        </object>
        <mxCell id="6wJMm1dqJSNav1fxQoMT-2" value="" style="sketch=0;outlineConnect=0;fontColor=#232F3E;gradientColor=none;fillColor=#7AA116;strokeColor=none;dashed=0;verticalLabelPosition=bottom;verticalAlign=top;align=center;html=1;fontSize=12;fontStyle=0;aspect=fixed;pointerEvents=1;shape=mxgraph.aws4.iot_thing_temperature_humidity_sensor;" vertex="1" parent="1">
          <mxGeometry x="30" y="460" width="78" height="78" as="geometry" />
        </mxCell>
        <mxCell id="6wJMm1dqJSNav1fxQoMT-3" value="ARDUINO IDE" style="dashed=0;outlineConnect=0;html=1;align=center;labelPosition=center;verticalLabelPosition=bottom;verticalAlign=top;shape=mxgraph.weblogos.arduino;fillColor=#36868D;strokeColor=none" vertex="1" parent="1">
          <mxGeometry x="160" y="246.99999999999997" width="67.4" height="32" as="geometry" />
        </mxCell>
        <mxCell id="6wJMm1dqJSNav1fxQoMT-4" value="Amazon IoT Core" style="sketch=0;outlineConnect=0;fontColor=#232F3E;gradientColor=none;strokeColor=#ffffff;fillColor=#232F3E;dashed=0;verticalLabelPosition=middle;verticalAlign=bottom;align=center;html=1;whiteSpace=wrap;fontSize=10;fontStyle=1;spacing=3;shape=mxgraph.aws4.productIcon;prIcon=mxgraph.aws4.iot_core;" vertex="1" parent="1">
          <mxGeometry x="500" y="190" width="80" height="110" as="geometry" />
        </mxCell>
        <mxCell id="6wJMm1dqJSNav1fxQoMT-5" value="Grafana" style="image;aspect=fixed;html=1;points=[];align=center;fontSize=12;image=img/lib/azure2/other/Grafana.svg;" vertex="1" parent="1">
          <mxGeometry x="330" y="780" width="68" height="52.800000000000004" as="geometry" />
        </mxCell>
        <mxCell id="6wJMm1dqJSNav1fxQoMT-6" value="" style="outlineConnect=0;dashed=0;verticalLabelPosition=bottom;verticalAlign=top;align=center;html=1;shape=mxgraph.aws3.mqtt_protocol;fillColor=#5294CF;gradientColor=none;" vertex="1" parent="1">
          <mxGeometry x="310" y="230" width="63" height="66" as="geometry" />
        </mxCell>
        <mxCell id="6wJMm1dqJSNav1fxQoMT-7" value="DynamoDB" style="outlineConnect=0;dashed=0;verticalLabelPosition=bottom;verticalAlign=top;align=center;html=1;shape=mxgraph.aws3.dynamo_db;fillColor=#2E73B8;gradientColor=none;" vertex="1" parent="1">
          <mxGeometry x="530" y="536" width="72" height="81" as="geometry" />
        </mxCell>
        <mxCell id="6wJMm1dqJSNav1fxQoMT-10" value="Certificate&#xa;manager" style="sketch=0;outlineConnect=0;fontColor=#232F3E;gradientColor=none;strokeColor=#232F3E;fillColor=#ffffff;dashed=0;verticalLabelPosition=bottom;verticalAlign=top;align=center;html=1;fontSize=12;fontStyle=0;aspect=fixed;shape=mxgraph.aws4.resourceIcon;resIcon=mxgraph.aws4.certificate_manager;" vertex="1" parent="1">
          <mxGeometry x="310" y="120" width="60" height="60" as="geometry" />
        </mxCell>
        <mxCell id="6wJMm1dqJSNav1fxQoMT-11" value="" style="endArrow=classic;html=1;rounded=0;" edge="1" parent="1">
          <mxGeometry width="50" height="50" relative="1" as="geometry">
            <mxPoint x="68.5" y="451" as="sourcePoint" />
            <mxPoint x="70" y="380" as="targetPoint" />
            <Array as="points">
              <mxPoint x="69.5" y="411" />
            </Array>
          </mxGeometry>
        </mxCell>
        <mxCell id="6wJMm1dqJSNav1fxQoMT-12" value="" style="endArrow=classic;html=1;rounded=0;" edge="1" parent="1" source="6wJMm1dqJSNav1fxQoMT-1" target="6wJMm1dqJSNav1fxQoMT-3">
          <mxGeometry width="50" height="50" relative="1" as="geometry">
            <mxPoint x="108" y="323.5" as="sourcePoint" />
            <mxPoint x="188" y="290" as="targetPoint" />
            <Array as="points">
              <mxPoint x="158" y="324" />
            </Array>
          </mxGeometry>
        </mxCell>
        <mxCell id="6wJMm1dqJSNav1fxQoMT-14" value="" style="endArrow=classic;startArrow=classic;html=1;rounded=0;" edge="1" parent="1" source="6wJMm1dqJSNav1fxQoMT-3" target="6wJMm1dqJSNav1fxQoMT-6">
          <mxGeometry width="50" height="50" relative="1" as="geometry">
            <mxPoint x="233" y="260" as="sourcePoint" />
            <mxPoint x="310" y="260" as="targetPoint" />
          </mxGeometry>
        </mxCell>
        <mxCell id="6wJMm1dqJSNav1fxQoMT-16" value="Rule" style="outlineConnect=0;dashed=0;verticalLabelPosition=bottom;verticalAlign=top;align=center;html=1;shape=mxgraph.aws3.rule;fillColor=#5294CF;gradientColor=none;" vertex="1" parent="1">
          <mxGeometry x="590" y="333" width="49.5" height="99" as="geometry" />
        </mxCell>
        <mxCell id="6wJMm1dqJSNav1fxQoMT-18" value="Topic" style="sketch=0;outlineConnect=0;fontColor=#232F3E;gradientColor=none;strokeColor=#232F3E;fillColor=#ffffff;dashed=0;verticalLabelPosition=bottom;verticalAlign=top;align=center;html=1;fontSize=12;fontStyle=0;aspect=fixed;shape=mxgraph.aws4.resourceIcon;resIcon=mxgraph.aws4.topic_2;" vertex="1" parent="1">
          <mxGeometry x="420" y="340" width="92" height="92" as="geometry" />
        </mxCell>
        <mxCell id="6wJMm1dqJSNav1fxQoMT-25" value="AWS Cloud" style="sketch=0;outlineConnect=0;fontColor=#232F3E;gradientColor=none;strokeColor=#232F3E;fillColor=#ffffff;dashed=0;verticalLabelPosition=bottom;verticalAlign=top;align=center;html=1;fontSize=12;fontStyle=0;aspect=fixed;shape=mxgraph.aws4.resourceIcon;resIcon=mxgraph.aws4.aws_cloud;" vertex="1" parent="1">
          <mxGeometry x="648.25" y="25" width="60" height="60" as="geometry" />
        </mxCell>
        <mxCell id="6wJMm1dqJSNav1fxQoMT-28" value="" style="endArrow=classic;html=1;rounded=0;" edge="1" parent="1" source="6wJMm1dqJSNav1fxQoMT-4" target="6wJMm1dqJSNav1fxQoMT-10">
          <mxGeometry width="50" height="50" relative="1" as="geometry">
            <mxPoint x="537.5" y="180" as="sourcePoint" />
            <mxPoint x="390" y="150" as="targetPoint" />
            <Array as="points">
              <mxPoint x="540" y="150" />
            </Array>
          </mxGeometry>
        </mxCell>
        <mxCell id="6wJMm1dqJSNav1fxQoMT-30" value="" style="endArrow=classic;startArrow=classic;html=1;rounded=0;" edge="1" parent="1" source="6wJMm1dqJSNav1fxQoMT-6" target="6wJMm1dqJSNav1fxQoMT-10">
          <mxGeometry width="50" height="50" relative="1" as="geometry">
            <mxPoint x="320" y="230" as="sourcePoint" />
            <mxPoint x="373" y="220" as="targetPoint" />
          </mxGeometry>
        </mxCell>
        <mxCell id="6wJMm1dqJSNav1fxQoMT-31" value="" style="strokeWidth=2;html=1;shape=mxgraph.flowchart.annotation_2;align=left;labelPosition=right;pointerEvents=1;direction=south;" vertex="1" parent="1">
          <mxGeometry x="465" y="300" width="150" height="40" as="geometry" />
        </mxCell>
        <mxCell id="6wJMm1dqJSNav1fxQoMT-32" value="" style="edgeStyle=elbowEdgeStyle;elbow=horizontal;endArrow=classic;html=1;curved=0;rounded=0;endSize=8;startSize=8;" edge="1" parent="1" source="6wJMm1dqJSNav1fxQoMT-10" target="6wJMm1dqJSNav1fxQoMT-1">
          <mxGeometry width="50" height="50" relative="1" as="geometry">
            <mxPoint x="227.4" y="200" as="sourcePoint" />
            <mxPoint x="277.4" y="150" as="targetPoint" />
            <Array as="points">
              <mxPoint x="70" y="200" />
            </Array>
          </mxGeometry>
        </mxCell>
        <mxCell id="6wJMm1dqJSNav1fxQoMT-33" value="" style="endArrow=classic;startArrow=classic;html=1;rounded=0;" edge="1" parent="1" source="6wJMm1dqJSNav1fxQoMT-6" target="6wJMm1dqJSNav1fxQoMT-18">
          <mxGeometry width="50" height="50" relative="1" as="geometry">
            <mxPoint x="340" y="480" as="sourcePoint" />
            <mxPoint x="390" y="430" as="targetPoint" />
            <Array as="points">
              <mxPoint x="360" y="380" />
            </Array>
          </mxGeometry>
        </mxCell>
        <mxCell id="6wJMm1dqJSNav1fxQoMT-34" value="" style="endArrow=classic;html=1;rounded=0;" edge="1" parent="1" source="6wJMm1dqJSNav1fxQoMT-16" target="6wJMm1dqJSNav1fxQoMT-7">
          <mxGeometry width="50" height="50" relative="1" as="geometry">
            <mxPoint x="620" y="500" as="sourcePoint" />
            <mxPoint x="670" y="450" as="targetPoint" />
            <Array as="points">
              <mxPoint x="615" y="490" />
            </Array>
          </mxGeometry>
        </mxCell>
        <mxCell id="6wJMm1dqJSNav1fxQoMT-35" value="S3" style="outlineConnect=0;dashed=0;verticalLabelPosition=bottom;verticalAlign=top;align=center;html=1;shape=mxgraph.aws3.s3;fillColor=#E05243;gradientColor=none;" vertex="1" parent="1">
          <mxGeometry x="700" y="530" width="76.5" height="93" as="geometry" />
        </mxCell>
        <mxCell id="6wJMm1dqJSNav1fxQoMT-36" value="Backup" style="endArrow=classic;html=1;rounded=0;" edge="1" parent="1" source="6wJMm1dqJSNav1fxQoMT-7" target="6wJMm1dqJSNav1fxQoMT-35">
          <mxGeometry width="50" height="50" relative="1" as="geometry">
            <mxPoint x="589.5" y="580" as="sourcePoint" />
            <mxPoint x="639.5" y="530" as="targetPoint" />
          </mxGeometry>
        </mxCell>
        <mxCell id="6wJMm1dqJSNav1fxQoMT-39" value="" style="endArrow=classic;startArrow=classic;html=1;rounded=0;" edge="1" parent="1" source="6wJMm1dqJSNav1fxQoMT-18" target="6wJMm1dqJSNav1fxQoMT-16">
          <mxGeometry width="50" height="50" relative="1" as="geometry">
            <mxPoint x="500" y="404.5" as="sourcePoint" />
            <mxPoint x="550" y="354.5" as="targetPoint" />
          </mxGeometry>
        </mxCell>
        <mxCell id="6wJMm1dqJSNav1fxQoMT-40" value="Data visualization&amp;nbsp;" style="shape=image;html=1;verticalAlign=top;verticalLabelPosition=bottom;labelBackgroundColor=#ffffff;imageAspect=0;aspect=fixed;image=https://cdn2.iconfinder.com/data/icons/linance/48/15_Chart-128.png" vertex="1" parent="1">
          <mxGeometry x="220" y="890" width="128" height="128" as="geometry" />
        </mxCell>
        <mxCell id="6wJMm1dqJSNav1fxQoMT-41" value="Visualization" style="endArrow=classic;html=1;rounded=0;" edge="1" parent="1" source="6wJMm1dqJSNav1fxQoMT-7" target="6wJMm1dqJSNav1fxQoMT-5">
          <mxGeometry width="50" height="50" relative="1" as="geometry">
            <mxPoint x="340" y="760" as="sourcePoint" />
            <mxPoint x="390" y="710" as="targetPoint" />
            <Array as="points">
              <mxPoint x="360" y="577" />
            </Array>
          </mxGeometry>
        </mxCell>
        <mxCell id="6wJMm1dqJSNav1fxQoMT-43" value="" style="shape=image;html=1;verticalAlign=top;verticalLabelPosition=bottom;labelBackgroundColor=#ffffff;imageAspect=0;aspect=fixed;image=https://cdn3.iconfinder.com/data/icons/fintech-icon/128/11_Data_Visualization-128.png" vertex="1" parent="1">
          <mxGeometry x="373" y="900" width="128" height="128" as="geometry" />
        </mxCell>
        <mxCell id="6wJMm1dqJSNav1fxQoMT-45" value="" style="strokeWidth=2;html=1;shape=mxgraph.flowchart.annotation_2;align=left;labelPosition=right;pointerEvents=1;direction=south;" vertex="1" parent="1">
          <mxGeometry x="265" y="862.2" width="175" height="47.8" as="geometry" />
        </mxCell>
        <mxCell id="6wJMm1dqJSNav1fxQoMT-46" value="&lt;b&gt;&lt;font style=&quot;font-size: 15px;&quot;&gt;Visualization&lt;/font&gt;&lt;/b&gt;" style="text;html=1;align=center;verticalAlign=middle;whiteSpace=wrap;rounded=0;" vertex="1" parent="1">
          <mxGeometry x="205" y="770" width="60" height="30" as="geometry" />
        </mxCell>
        <mxCell id="6wJMm1dqJSNav1fxQoMT-47" value="&lt;b&gt;&lt;font style=&quot;font-size: 15px;&quot;&gt;Embedded System&lt;/font&gt;&lt;/b&gt;" style="text;html=1;align=center;verticalAlign=middle;whiteSpace=wrap;rounded=0;" vertex="1" parent="1">
          <mxGeometry x="190" y="170" width="60" height="30" as="geometry" />
        </mxCell>
        <mxCell id="6wJMm1dqJSNav1fxQoMT-48" value="&lt;b&gt;&lt;font style=&quot;font-size: 16px;&quot;&gt;Cloud Service&lt;/font&gt;&lt;/b&gt;" style="text;html=1;align=center;verticalAlign=middle;whiteSpace=wrap;rounded=0;" vertex="1" parent="1">
          <mxGeometry x="708.25" y="40" width="60" height="30" as="geometry" />
        </mxCell>
      </root>
    </mxGraphModel>
  </diagram>
</mxfile>
